<svg xmlns="http://www.w3.org/2000/svg" width="256" height="256" viewBox="0 0 100 100"><rect width="100" height="100" rx="20" fill="#e76e8c"></rect><path d="M44.11 23.18L44.11 72.05Q44.11 73.85 43.34 74.84Q42.58 75.83 40.95 76.82L40.95 76.82Q39.16 77.99 35.83 79.03Q32.50 80.06 28.18 80.06L28.18 80.06Q23.32 80.06 19.27 78.80Q15.22 77.54 12.29 74.89Q9.37 72.23 7.79 68.14Q6.22 64.04 6.22 58.28L6.22 58.28Q6.22 52.43 7.84 48.25Q9.46 44.06 12.20 41.36Q14.95 38.66 18.68 37.40Q22.42 36.14 26.65 36.14L26.65 36.14Q29.53 36.14 32.23 36.86Q34.92 37.58 36.91 38.66L36.91 38.66L36.91 20.57Q37.36 20.39 38.30 20.17Q39.25 19.94 40.23 19.94L40.23 19.94Q44.11 19.94 44.11 23.18L44.11 23.18ZM36.91 71.78L36.91 45.14Q35.11 43.88 32.77 42.98Q30.43 42.08 27.37 42.08L27.37 42.08Q24.58 42.08 22.10 42.94Q19.63 43.79 17.74 45.73Q15.85 47.66 14.72 50.81Q13.60 53.96 13.60 58.46L13.60 58.46Q13.60 66.74 17.56 70.43Q21.52 74.12 28.09 74.12L28.09 74.12Q31.24 74.12 33.26 73.45Q35.28 72.77 36.91 71.78L36.91 71.78ZM57.78 63.68L57.78 37.49Q58.23 37.31 59.18 37.09Q60.13 36.86 61.20 36.86L61.20 36.86Q64.98 36.86 64.98 40.19L64.98 40.19L64.98 63.32Q64.98 69.17 68.04 71.64Q71.10 74.12 76.50 74.12L76.50 74.12Q80.10 74.12 82.63 73.36Q85.14 72.59 86.58 71.78L86.58 71.78L86.58 37.49Q87.03 37.31 87.98 37.09Q88.92 36.86 89.91 36.86L89.91 36.86Q93.78 36.86 93.78 40.19L93.78 40.19L93.78 71.51Q93.78 73.40 93.29 74.53Q92.79 75.65 90.91 76.73L90.91 76.73Q88.83 77.90 85.19 78.98Q81.54 80.06 76.41 80.06L76.41 80.06Q67.41 80.06 62.60 76.10Q57.78 72.14 57.78 63.68L57.78 63.68Z" fill="#fff"></path></svg>